<?xml version="1.0" encoding="UTF-8"?>
<!DOCTYPE svg PUBLIC "-//W3C//DTD SVG 1.1//EN" "http://www.w3.org/Graphics/SVG/1.1/DTD/svg11.dtd">
<svg xmlns="http://www.w3.org/2000/svg" version="1.1" width="500px" height="500px" style="shape-rendering:geometricPrecision; text-rendering:geometricPrecision; image-rendering:optimizeQuality; fill-rule:evenodd; clip-rule:evenodd" xmlns:xlink="http://www.w3.org/1999/xlink">
<g><path style="opacity:1" fill="#f0f0f0" d="M -0.5,-0.5 C 166.167,-0.5 332.833,-0.5 499.5,-0.5C 499.5,166.167 499.5,332.833 499.5,499.5C 332.833,499.5 166.167,499.5 -0.5,499.5C -0.5,332.833 -0.5,166.167 -0.5,-0.5 Z"/></g>
<g><path style="opacity:1" fill="#545454" d="M 294.5,134.5 C 298.833,134.5 303.167,134.5 307.5,134.5C 307.921,140.814 306.754,146.814 304,152.5C 305.021,146.948 305.521,141.281 305.5,135.5C 292.457,136.219 279.957,139.219 268,144.5C 267.5,144.333 267,144.167 266.5,144C 275.709,140.098 285.042,136.931 294.5,134.5 Z"/></g>
<g><path style="opacity:1" fill="#4e4e4e" d="M 259.5,148.5 C 260.665,146.584 262.332,145.751 264.5,146C 263.09,147.372 261.423,148.205 259.5,148.5 Z"/></g>
<g><path style="opacity:1" fill="#747474" d="M 259.5,148.5 C 258.121,151.073 256.121,152.573 253.5,153C 255.114,150.873 257.114,149.373 259.5,148.5 Z"/></g>
<g><path style="opacity:1" fill="#505050" d="M 250.5,155.5 C 251.043,155.56 251.376,155.893 251.5,156.5C 246.886,162.949 246.552,162.616 250.5,155.5 Z"/></g>
<g><path style="opacity:1" fill="#e0e0e0" d="M 286.5,161.5 C 287.058,162.79 288.058,163.623 289.5,164C 282.97,164.206 276.47,163.706 270,162.5C 265.359,163.407 260.859,164.74 256.5,166.5C 255.494,166.062 255.494,165.396 256.5,164.5C 266.164,160.448 276.164,159.448 286.5,161.5 Z"/></g>
<g><path style="opacity:1" fill="#393939" d="M 286.5,161.5 C 276.164,159.448 266.164,160.448 256.5,164.5C 258.965,162.163 261.965,160.663 265.5,160C 271.833,159.333 278.167,159.333 284.5,160C 285.416,160.278 286.082,160.778 286.5,161.5 Z"/></g>
<g><path style="opacity:1" fill="#1e1e1e" d="M 305.5,165.5 C 303.716,164.28 302.05,164.28 300.5,165.5C 297.715,164.916 296.048,165.916 295.5,168.5C 293.952,168.179 293.285,167.179 293.5,165.5C 289.818,165.335 286.152,165.501 282.5,166C 283.056,166.383 283.389,166.883 283.5,167.5C 274.342,162.898 265.675,163.565 257.5,169.5C 257.443,168.391 257.11,167.391 256.5,166.5C 260.859,164.74 265.359,163.407 270,162.5C 276.47,163.706 282.97,164.206 289.5,164C 288.058,163.623 287.058,162.79 286.5,161.5C 289.13,162.428 291.796,163.428 294.5,164.5C 296.829,163.002 298.663,161.002 300,158.5C 300.265,160.163 299.765,161.663 298.5,163C 301.047,163.66 303.547,163.493 306,162.5C 306.5,162.833 307,163.167 307.5,163.5C 306.757,164.182 306.091,164.849 305.5,165.5 Z"/></g>
<g><path style="opacity:1" fill="#ebebeb" d="M 283.5,167.5 C 285.273,168.892 287.273,170.059 289.5,171C 287.959,172.371 286.625,173.871 285.5,175.5C 274.512,179.433 263.512,179.267 252.5,175C 254.373,173.296 256.04,171.463 257.5,169.5C 265.675,163.565 274.342,162.898 283.5,167.5 Z"/></g>
<g><path style="opacity:1" fill="#dfdfdf" d="M 300.5,165.5 C 301.552,165.351 302.552,165.517 303.5,166C 301.627,167.704 299.96,169.537 298.5,171.5C 297.272,170.694 296.272,169.694 295.5,168.5C 296.048,165.916 297.715,164.916 300.5,165.5 Z"/></g>
<g><path style="opacity:1" fill="#343434" d="M 283.5,167.5 C 286.578,168.202 289.578,169.202 292.5,170.5C 290.408,172.605 288.075,174.272 285.5,175.5C 286.625,173.871 287.959,172.371 289.5,171C 287.273,170.059 285.273,168.892 283.5,167.5 Z"/></g>
<g><path style="opacity:1" fill="#848484" d="M 300.5,165.5 C 302.05,164.28 303.716,164.28 305.5,165.5C 303.761,168.243 301.427,170.243 298.5,171.5C 299.96,169.537 301.627,167.704 303.5,166C 302.552,165.517 301.552,165.351 300.5,165.5 Z"/></g>
<g><path style="opacity:1" fill="#3f3f3f" d="M 256.5,164.5 C 255.494,165.396 255.494,166.062 256.5,166.5C 257.11,167.391 257.443,168.391 257.5,169.5C 256.04,171.463 254.373,173.296 252.5,175C 263.512,179.267 274.512,179.433 285.5,175.5C 284.025,177.41 282.025,178.576 279.5,179C 270.369,179.993 261.369,179.326 252.5,177C 251.692,176.692 251.025,176.192 250.5,175.5C 252.316,173.183 254.316,171.016 256.5,169C 254.089,169.052 251.756,169.385 249.5,170C 251.441,167.546 253.775,165.713 256.5,164.5 Z"/></g>
<g><path style="opacity:1" fill="#424242" d="M 295.5,168.5 C 296.272,169.694 297.272,170.694 298.5,171.5C 299.544,180.139 299.711,188.806 299,197.5C 298.227,202.995 296.394,207.995 293.5,212.5C 299.159,197.976 299.826,183.309 295.5,168.5 Z"/></g>
<g><path style="opacity:1" fill="#575757" d="M 250.5,225.5 C 250.167,225.5 249.833,225.5 249.5,225.5C 249.665,222.482 249.498,219.482 249,216.5C 246.353,207.246 244.02,197.913 242,188.5C 240.783,180.522 241.783,172.856 245,165.5C 243.6,173.72 243.267,182.054 244,190.5C 246.128,199.884 248.461,209.217 251,218.5C 251.796,221.039 251.629,223.372 250.5,225.5 Z"/></g>
<g><path style="opacity:1" fill="#3d3d3d" d="M 293.5,212.5 C 293.598,214.553 292.931,216.22 291.5,217.5C 291.402,215.447 292.069,213.78 293.5,212.5 Z"/></g>
<g><path style="opacity:1" fill="#898989" d="M 214.5,214.5 C 216.167,215.167 217.833,215.833 219.5,216.5C 216.098,216.342 212.764,216.676 209.5,217.5C 210.659,215.75 212.326,214.75 214.5,214.5 Z"/></g>
<g><path style="opacity:1" fill="#212121" d="M 214.5,214.5 C 217.553,214.111 220.22,214.777 222.5,216.5C 221.5,216.5 220.5,216.5 219.5,216.5C 217.833,215.833 216.167,215.167 214.5,214.5 Z"/></g>
<g><path style="opacity:1" fill="#333333" d="M 222.5,216.5 C 224.933,216.273 226.599,217.273 227.5,219.5C 225.566,218.89 223.899,217.89 222.5,216.5 Z"/></g>
<g><path style="opacity:1" fill="#393939" d="M 209.5,217.5 C 207.061,221.048 207.061,224.548 209.5,228C 209.167,228.167 208.833,228.333 208.5,228.5C 205.673,224.482 206.006,220.815 209.5,217.5 Z"/></g>
<g><path style="opacity:1" fill="#272727" d="M 231.5,231.5 C 230.173,230.2 228.84,228.867 227.5,227.5C 225.133,229.395 222.466,229.895 219.5,229C 221.256,228.798 222.922,228.298 224.5,227.5C 222.197,224.598 223.197,223.764 227.5,225C 229.734,226.638 231.067,228.805 231.5,231.5 Z"/></g>
<g><path style="opacity:1" fill="#3e3e3e" d="M 291.5,217.5 C 290.237,222.032 288.403,226.365 286,230.5C 286.718,225.727 288.551,221.394 291.5,217.5 Z"/></g>
<g><path style="opacity:1" fill="#1b1b1b" d="M 218.5,225.5 C 219.239,225.369 219.906,225.536 220.5,226C 218.597,229.014 216.263,229.68 213.5,228C 215.315,227.243 216.981,226.41 218.5,225.5 Z"/></g>
<g><path style="opacity:1" fill="#272727" d="M 227.5,219.5 C 231.192,222.362 233.525,226.196 234.5,231C 237.596,231.927 239.93,230.927 241.5,228C 244.251,227.057 246.917,226.224 249.5,225.5C 249.833,225.5 250.167,225.5 250.5,225.5C 250.631,226.376 250.298,227.043 249.5,227.5C 243.808,230.518 238.141,233.184 232.5,235.5C 232.567,234.041 232.234,232.708 231.5,231.5C 232.097,231.265 232.43,230.765 232.5,230C 231.471,226.113 229.805,222.613 227.5,219.5 Z"/></g>
<g><path style="opacity:1" fill="#424242" d="M 277.5,245.5 C 278.795,241.577 280.628,237.91 283,234.5C 282.248,238.67 280.415,242.337 277.5,245.5 Z"/></g>
<g><path style="opacity:1" fill="#111111" d="M 145.5,244.5 C 158.45,242.313 168.95,246.313 177,256.5C 188.625,276.505 190.625,297.505 183,319.5C 179.122,327.431 174.622,334.931 169.5,342C 175.597,355.548 185.93,360.882 200.5,358C 190.873,363.27 181.873,362.27 173.5,355C 170.667,351.5 167.833,348 165,344.5C 156.5,350.779 147,353.612 136.5,353C 127.104,350.032 123.604,343.866 126,334.5C 128.833,330.333 132.333,326.833 136.5,324C 123.508,308.359 118.674,290.526 122,270.5C 125.864,258.141 133.698,249.474 145.5,244.5 Z"/></g>
<g><path style="opacity:1" fill="#efefef" d="M 145.5,246.5 C 161.455,245.629 172.289,252.629 178,267.5C 185.02,288.085 183.687,308.085 174,327.5C 171.899,330.712 169.566,333.712 167,336.5C 163.197,332.368 159.031,328.534 154.5,325C 149.676,323.181 144.676,322.015 139.5,321.5C 123.883,301.634 121.383,280.301 132,257.5C 135.819,252.833 140.319,249.166 145.5,246.5 Z"/></g>
<g><path style="opacity:1" fill="#3b3b3b" d="M 277.5,245.5 C 276.921,248.331 275.588,250.664 273.5,252.5C 274.079,249.669 275.412,247.336 277.5,245.5 Z"/></g>
<g><path style="opacity:1" fill="#e9e9e9" d="M 249.5,262.5 C 245.203,263.394 241.036,262.727 237,260.5C 236.228,260.645 235.561,260.978 235,261.5C 235.667,258.833 236.333,256.167 237,253.5C 235.374,255.917 233.874,258.417 232.5,261C 229.188,261.538 226.021,261.038 223,259.5C 220.133,259.839 217.633,260.839 215.5,262.5C 210.101,263.994 204.768,263.827 199.5,262C 200.056,261.617 200.389,261.117 200.5,260.5C 200.842,259.662 201.508,259.328 202.5,259.5C 209.478,256.345 216.478,253.179 223.5,250C 228.229,249.004 232.729,249.504 237,251.5C 241.153,248.662 244.82,249.328 248,253.5C 249.289,256.351 249.789,259.351 249.5,262.5 Z"/></g>
<g><path style="opacity:1" fill="#464646" d="M 232.5,235.5 C 231.519,238.807 230.519,242.14 229.5,245.5C 229.833,246.167 230.167,246.833 230.5,247.5C 235.894,248.055 241.227,248.888 246.5,250C 251.109,253.604 252.109,257.771 249.5,262.5C 249.789,259.351 249.289,256.351 248,253.5C 244.82,249.328 241.153,248.662 237,251.5C 232.729,249.504 228.229,249.004 223.5,250C 216.478,253.179 209.478,256.345 202.5,259.5C 210.112,254.195 218.446,250.195 227.5,247.5C 228.409,243.086 230.075,239.086 232.5,235.5 Z"/></g>
<g><path style="opacity:1" fill="#3e3e3e" d="M 273.5,252.5 C 271.251,258.005 268.251,263.005 264.5,267.5C 266.749,261.995 269.749,256.995 273.5,252.5 Z"/></g>
<g><path style="opacity:1" fill="#e6e6e6" d="M 232.5,264.5 C 229.884,265.052 227.217,265.386 224.5,265.5C 220.597,265.692 217.597,265.026 215.5,263.5C 221.377,260.778 227.044,261.111 232.5,264.5 Z"/></g>
<g><path style="opacity:1" fill="#474747" d="M 249.5,262.5 C 249.141,267.38 247.975,272.047 246,276.5C 244.549,278.464 242.716,279.797 240.5,280.5C 244.509,277.32 246.842,273.153 247.5,268C 247.245,266.674 246.578,265.674 245.5,265C 242.076,264.253 238.743,264.42 235.5,265.5C 234.791,264.596 233.791,264.263 232.5,264.5C 227.044,261.111 221.377,260.778 215.5,263.5C 215.5,263.167 215.5,262.833 215.5,262.5C 217.633,260.839 220.133,259.839 223,259.5C 226.021,261.038 229.188,261.538 232.5,261C 233.874,258.417 235.374,255.917 237,253.5C 236.333,256.167 235.667,258.833 235,261.5C 235.561,260.978 236.228,260.645 237,260.5C 241.036,262.727 245.203,263.394 249.5,262.5 Z"/></g>
<g><path style="opacity:1" fill="#ececec" d="M 240.5,280.5 C 240.158,281.338 239.492,281.672 238.5,281.5C 235.461,282.01 232.461,282.677 229.5,283.5C 229.5,283.167 229.5,282.833 229.5,282.5C 229.198,279.627 228.531,276.961 227.5,274.5C 227.312,269.019 229.979,266.019 235.5,265.5C 238.743,264.42 242.076,264.253 245.5,265C 246.578,265.674 247.245,266.674 247.5,268C 246.842,273.153 244.509,277.32 240.5,280.5 Z"/></g>
<g><path style="opacity:1" fill="#ebebeb" d="M 226.5,275.5 C 227.219,277.764 227.552,280.097 227.5,282.5C 225.052,283.473 222.385,283.806 219.5,283.5C 216.689,282.525 213.689,281.858 210.5,281.5C 209.738,279.738 208.404,278.738 206.5,278.5C 205.083,275.331 203.417,272.331 201.5,269.5C 201.67,268.178 201.337,267.011 200.5,266C 209.854,265.501 219.188,265.834 228.5,267C 226.686,269.481 226.02,272.315 226.5,275.5 Z"/></g>
<g><path style="opacity:1" fill="#222222" d="M 200.5,260.5 C 200.389,261.117 200.056,261.617 199.5,262C 204.768,263.827 210.101,263.994 215.5,262.5C 215.5,262.833 215.5,263.167 215.5,263.5C 217.597,265.026 220.597,265.692 224.5,265.5C 227.217,265.386 229.884,265.052 232.5,264.5C 233.791,264.263 234.791,264.596 235.5,265.5C 229.979,266.019 227.312,269.019 227.5,274.5C 227.5,275.167 227.167,275.5 226.5,275.5C 226.02,272.315 226.686,269.481 228.5,267C 219.188,265.834 209.854,265.501 200.5,266C 201.337,267.011 201.67,268.178 201.5,269.5C 200.314,266.66 198.314,264.494 195.5,263C 196.91,261.628 198.577,260.795 200.5,260.5 Z"/></g>
<g><path style="opacity:1" fill="#3c3c3c" d="M 201.5,269.5 C 203.417,272.331 205.083,275.331 206.5,278.5C 203.55,276.272 201.884,273.272 201.5,269.5 Z"/></g>
<g><path style="opacity:1" fill="#3f3f3f" d="M 206.5,278.5 C 208.404,278.738 209.738,279.738 210.5,281.5C 208.596,281.262 207.262,280.262 206.5,278.5 Z"/></g>
<g><path style="opacity:1" fill="#343434" d="M 264.5,267.5 C 258.436,278.619 251.603,289.286 244,299.5C 243.333,298.833 243.333,298.167 244,297.5C 250.696,287.322 257.53,277.322 264.5,267.5 Z"/></g>
<g><path style="opacity:1" fill="#727272" d="M 227.5,274.5 C 228.531,276.961 229.198,279.627 229.5,282.5C 228.833,282.5 228.167,282.5 227.5,282.5C 227.552,280.097 227.219,277.764 226.5,275.5C 227.167,275.5 227.5,275.167 227.5,274.5 Z"/></g>
<g><path style="opacity:1" fill="#666666" d="M 210.5,281.5 C 213.689,281.858 216.689,282.525 219.5,283.5C 218.209,283.263 217.209,283.596 216.5,284.5C 214.25,283.87 212.25,282.87 210.5,281.5 Z"/></g>
<g><path style="opacity:1" fill="#111111" d="M 227.5,282.5 C 228.167,282.5 228.833,282.5 229.5,282.5C 229.5,282.833 229.5,283.167 229.5,283.5C 229.5,283.833 229.5,284.167 229.5,284.5C 227.833,285.167 226.167,285.833 224.5,286.5C 224.611,285.883 224.944,285.383 225.5,285C 222.518,284.502 219.518,284.335 216.5,284.5C 217.209,283.596 218.209,283.263 219.5,283.5C 222.385,283.806 225.052,283.473 227.5,282.5 Z"/></g>
<g><path style="opacity:1" fill="#666666" d="M 238.5,281.5 C 235.854,283.253 232.854,284.253 229.5,284.5C 229.5,284.167 229.5,283.833 229.5,283.5C 232.461,282.677 235.461,282.01 238.5,281.5 Z"/></g>
<g><path style="opacity:1" fill="#505050" d="M 224.5,286.5 C 224.082,287.222 223.416,287.722 222.5,288C 215.35,288.048 208.35,288.881 201.5,290.5C 203.734,288.554 206.401,287.387 209.5,287C 214.537,287.312 219.537,287.146 224.5,286.5 Z"/></g>
<g><path style="opacity:1" fill="#4c4c4c" d="M 201.5,290.5 C 201.027,291.906 200.027,292.573 198.5,292.5C 198.973,291.094 199.973,290.427 201.5,290.5 Z"/></g>
<g><path style="opacity:1" fill="#3e3e3e" d="M 198.5,292.5 C 198.573,294.027 197.906,295.027 196.5,295.5C 196.427,293.973 197.094,292.973 198.5,292.5 Z"/></g>
<g><path style="opacity:1" fill="#636363" d="M 236.5,306.5 C 237.793,304.704 239.293,303.037 241,301.5C 240.823,304.186 239.323,305.852 236.5,306.5 Z"/></g>
<g><path style="opacity:1" fill="#434343" d="M 236.5,306.5 C 235.198,308.822 233.198,310.155 230.5,310.5C 232.147,308.674 234.147,307.34 236.5,306.5 Z"/></g>
<g><path style="opacity:1" fill="#383838" d="M 196.5,295.5 C 197.704,307.364 204.371,313.364 216.5,313.5C 221.317,313.129 225.984,312.129 230.5,310.5C 229.025,312.41 227.025,313.576 224.5,314C 214.114,316.572 205.281,314.072 198,306.5C 195.56,302.932 195.06,299.265 196.5,295.5 Z"/></g>
<g><path style="opacity:1" fill="#131313" d="M 285.5,331.5 C 286.451,330.081 286.784,328.415 286.5,326.5C 284.901,326.232 283.568,326.566 282.5,327.5C 279.796,333.684 275.129,335.85 268.5,334C 267.789,332.745 266.956,331.579 266,330.5C 261.736,337.491 256.736,338.157 251,332.5C 248.853,334.476 246.353,335.809 243.5,336.5C 241.575,336.41 240.408,335.41 240,333.5C 241.543,315.862 239.043,315.196 232.5,331.5C 231.311,332.429 229.978,332.762 228.5,332.5C 228.664,329.813 228.497,327.146 228,324.5C 225.905,328.365 223.572,332.032 221,335.5C 220.228,335.355 219.561,335.022 219,334.5C 218.667,333.167 218.333,331.833 218,330.5C 212.758,335.718 207.758,335.718 203,330.5C 200.647,335.426 196.814,337.26 191.5,336C 187.784,332.458 187.618,328.625 191,324.5C 194.351,319.79 198.684,318.456 204,320.5C 205.11,318.963 206.61,318.297 208.5,318.5C 208.334,322.514 208.501,326.514 209,330.5C 209.519,331.516 210.353,332.182 211.5,332.5C 216.222,330.786 218.556,327.453 218.5,322.5C 220.911,322.137 222.411,323.137 223,325.5C 224.392,322.606 226.559,320.606 229.5,319.5C 230.672,319.919 231.672,320.585 232.5,321.5C 233.981,320.52 235.315,319.353 236.5,318C 241.485,316.243 244.151,317.91 244.5,323C 243.722,326.155 243.555,329.322 244,332.5C 244.414,332.957 244.914,333.291 245.5,333.5C 248.094,332.408 250.261,330.741 252,328.5C 254.601,321.035 259.601,318.369 267,320.5C 268.11,318.963 269.61,318.297 271.5,318.5C 271.334,322.514 271.501,326.514 272,330.5C 272.519,331.516 273.353,332.182 274.5,332.5C 277.238,331.272 279.571,329.438 281.5,327C 279.604,325.192 279.104,323.025 280,320.5C 281.356,319.62 282.856,319.286 284.5,319.5C 283.769,321.599 283.769,323.599 284.5,325.5C 286.071,324.691 287.738,324.357 289.5,324.5C 287.949,339.403 290.783,340.403 298,327.5C 297.75,333.434 294.75,337.434 289,339.5C 287.739,339.241 286.739,338.574 286,337.5C 285.505,335.527 285.338,333.527 285.5,331.5 Z"/></g>
<g><path style="opacity:1" fill="#e3e3e3" d="M 197.5,322.5 C 199.604,322.201 201.604,322.534 203.5,323.5C 202.253,326.329 200.753,328.995 199,331.5C 197.556,333.155 195.722,333.822 193.5,333.5C 192.887,329.071 194.22,325.405 197.5,322.5 Z"/></g>
<g><path style="opacity:1" fill="#e3e3e3" d="M 260.5,322.5 C 262.604,322.201 264.604,322.534 266.5,323.5C 265.253,326.329 263.753,328.995 262,331.5C 260.556,333.155 258.722,333.822 256.5,333.5C 255.887,329.071 257.22,325.405 260.5,322.5 Z"/></g>
<g><path style="opacity:1" fill="#eaeaea" d="M 143.5,326.5 C 146.597,325.212 149.597,325.712 152.5,328C 156.783,331.445 160.117,335.612 162.5,340.5C 155.513,348.108 146.846,351.275 136.5,350C 126.991,342.34 127.324,335.007 137.5,328C 140.525,329.602 143.858,330.269 147.5,330C 146.295,328.624 144.962,327.458 143.5,326.5 Z"/></g>
<g><path style="opacity:1" fill="#646464" d="M 282.5,327.5 C 283.568,326.566 284.901,326.232 286.5,326.5C 286.784,328.415 286.451,330.081 285.5,331.5C 285.5,330.167 285.5,328.833 285.5,327.5C 284.5,327.5 283.5,327.5 282.5,327.5 Z"/></g>
<g><path style="opacity:1" fill="#f06fbb" d="M 200.5,340.5 C 204.881,339.534 207.881,341.034 209.5,345C 208.563,348.891 206.063,350.724 202,350.5C 197.744,350.581 196.077,348.581 197,344.5C 198.032,342.973 199.199,341.64 200.5,340.5 Z"/></g>
<g><path style="opacity:1" fill="#ee6fc1" d="M 227.5,340.5 C 230.572,340.183 233.572,340.516 236.5,341.5C 234.5,342.167 232.5,342.833 230.5,343.5C 231.833,344.167 233.167,344.833 234.5,345.5C 227.833,346.833 227.833,348.167 234.5,349.5C 231.914,350.48 229.247,350.813 226.5,350.5C 227.207,347.214 227.54,343.881 227.5,340.5 Z"/></g>
<g><path style="opacity:1" fill="#f765b6" d="M 239.5,340.5 C 240.5,340.5 241.5,340.5 242.5,340.5C 242.167,343.167 241.833,345.833 241.5,348.5C 242.978,348.238 244.311,348.571 245.5,349.5C 243.257,350.474 240.924,350.808 238.5,350.5C 238.833,347.167 239.167,343.833 239.5,340.5 Z"/></g>
<g><path style="opacity:1" fill="#ee6ebc" d="M 279.5,340.5 C 280.833,340.5 282.167,340.5 283.5,340.5C 284.167,343.833 284.833,347.167 285.5,350.5C 283.723,350.214 282.056,349.547 280.5,348.5C 278.677,349.845 276.677,350.345 274.5,350C 276.426,346.924 278.092,343.758 279.5,340.5 Z"/></g>
<g><path style="opacity:1" fill="#f46bbd" d="M 290.5,340.5 C 293.187,340.336 295.854,340.503 298.5,341C 301.064,343.276 300.73,345.276 297.5,347C 300.433,349.351 300.099,350.351 296.5,350C 294.197,345.318 292.863,345.485 292.5,350.5C 291.5,350.5 290.5,350.5 289.5,350.5C 289.833,347.167 290.167,343.833 290.5,340.5 Z"/></g>
<g><path style="opacity:1" fill="#ee6ebd" d="M 303.5,340.5 C 306.898,340.18 310.232,340.513 313.5,341.5C 312.311,342.429 310.978,342.762 309.5,342.5C 309.662,344.527 309.495,346.527 309,348.5C 308.275,350.158 307.108,350.658 305.5,350C 306.435,347.619 306.768,345.119 306.5,342.5C 304.821,342.715 303.821,342.048 303.5,340.5 Z"/></g>
<g><path style="opacity:1" fill="#f46bb7" d="M 316.5,340.5 C 317.5,340.5 318.5,340.5 319.5,340.5C 318.793,343.786 318.46,347.119 318.5,350.5C 317.5,350.5 316.5,350.5 315.5,350.5C 315.833,347.167 316.167,343.833 316.5,340.5 Z"/></g>
<g><path style="opacity:1" fill="#ec72bf" d="M 324.5,340.5 C 326.792,340.244 328.959,340.577 331,341.5C 331.688,342.332 331.521,342.998 330.5,343.5C 329.232,342.572 327.899,342.405 326.5,343C 328.448,343.983 330.282,345.15 332,346.5C 332.507,347.996 332.007,349.163 330.5,350C 327.901,350.769 325.401,350.602 323,349.5C 322.312,348.668 322.479,348.002 323.5,347.5C 331.321,348.819 331.487,348.153 324,345.5C 323.36,343.735 323.527,342.068 324.5,340.5 Z"/></g>
<g><path style="opacity:1" fill="#ee6ebd" d="M 335.5,340.5 C 338.898,340.18 342.232,340.513 345.5,341.5C 344.311,342.429 342.978,342.762 341.5,342.5C 341.662,344.527 341.495,346.527 341,348.5C 340.275,350.158 339.108,350.658 337.5,350C 338.435,347.619 338.768,345.119 338.5,342.5C 336.821,342.715 335.821,342.048 335.5,340.5 Z"/></g>
<g><path style="opacity:1" fill="#ef6cb7" d="M 213.5,340.5 C 217.007,339.994 220.174,340.66 223,342.5C 224.041,345.636 223.207,348.136 220.5,350C 217.446,350.821 214.446,350.655 211.5,349.5C 212.275,346.516 212.941,343.516 213.5,340.5 Z"/></g>
<g><path style="opacity:1" fill="#eb71be" d="M 258.5,340.5 C 260.467,340.261 262.301,340.594 264,341.5C 264.684,342.784 264.517,343.951 263.5,345C 264.308,345.308 264.975,345.808 265.5,346.5C 264.289,347.72 264.289,348.887 265.5,350C 262.24,350.784 259.073,350.617 256,349.5C 256.652,346.569 257.486,343.569 258.5,340.5 Z"/></g>
<g><path style="opacity:1" fill="#dbcedc" d="M 292.5,342.5 C 294.288,342.215 295.955,342.548 297.5,343.5C 296.332,345.217 294.665,345.884 292.5,345.5C 292.5,344.5 292.5,343.5 292.5,342.5 Z"/></g>
<g><path style="opacity:1" fill="#f26abb" d="M 180.5,340.5 C 181.833,340.5 183.167,340.5 184.5,340.5C 184.838,342.854 185.338,345.187 186,347.5C 187.377,345.246 188.877,343.08 190.5,341C 191.448,340.517 192.448,340.351 193.5,340.5C 193.693,344.013 193.026,347.346 191.5,350.5C 190.702,348.922 190.202,347.256 190,345.5C 186.724,352.323 184.391,351.99 183,344.5C 182.767,346.78 181.934,348.78 180.5,350.5C 179.808,347.23 179.808,343.897 180.5,340.5 Z"/></g>
<g><path style="opacity:1" fill="#e3e1ea" d="M 201.5,342.5 C 206.587,342.284 207.587,344.118 204.5,348C 203.207,348.49 201.873,348.657 200.5,348.5C 200.325,346.379 200.659,344.379 201.5,342.5 Z"/></g>
<g><path style="opacity:1" fill="#e1e0e7" d="M 215.5,342.5 C 220.587,342.284 221.587,344.118 218.5,348C 217.552,348.483 216.552,348.649 215.5,348.5C 215.5,346.5 215.5,344.5 215.5,342.5 Z"/></g>
<g><path style="opacity:1" fill="#d7dbe5" d="M 259.5,342.5 C 262.797,342.329 263.131,342.995 260.5,344.5C 259.702,344.043 259.369,343.376 259.5,342.5 Z"/></g>
<g><path style="opacity:1" fill="#e0eced" d="M 280.5,343.5 C 281.776,344.386 281.776,345.386 280.5,346.5C 279.913,345.767 279.913,344.767 280.5,343.5 Z"/></g>
<g><path style="opacity:1" fill="#d8e5ec" d="M 258.5,346.5 C 261.137,348.154 260.803,348.654 257.5,348C 258.056,347.617 258.389,347.117 258.5,346.5 Z"/></g>
</svg>
